<svg width="97" height="17" viewBox="0 0 97 17" fill="none" xmlns="http://www.w3.org/2000/svg">
<path d="M16.0754 6.21885L11.1567 5.46639L8.95208 0.763392C8.78741 0.412203 8.21208 0.412203 8.04741 0.763392L5.84342 5.46639L0.924765 6.21885C0.520766 6.28094 0.359433 6.77301 0.642766 7.06344L4.21609 10.7316L3.37143 15.9173C3.30409 16.3292 3.74342 16.6384 4.10676 16.4361L8.50008 14.0044L12.8934 16.4367C13.2534 16.637 13.6967 16.3339 13.6287 15.918L12.7841 10.7322L16.3574 7.06411C16.6407 6.77301 16.4787 6.28094 16.0754 6.21885Z" fill="#FFA41D"/>
<path d="M36.0754 6.21885L31.1567 5.46639L28.9521 0.763392C28.7874 0.412203 28.2121 0.412203 28.0474 0.763392L25.8434 5.46639L20.9248 6.21885C20.5208 6.28094 20.3594 6.77301 20.6428 7.06344L24.2161 10.7316L23.3714 15.9173C23.3041 16.3292 23.7434 16.6384 24.1068 16.4361L28.5001 14.0044L32.8934 16.4367C33.2534 16.637 33.6967 16.3339 33.6287 15.918L32.7841 10.7322L36.3574 7.06411C36.6407 6.77301 36.4787 6.28094 36.0754 6.21885Z" fill="#FFA41D"/>
<path d="M56.0754 6.21885L51.1567 5.46639L48.9521 0.763392C48.7874 0.412203 48.2121 0.412203 48.0474 0.763392L45.8434 5.46639L40.9248 6.21885C40.5208 6.28094 40.3594 6.77301 40.6428 7.06344L44.2161 10.7316L43.3714 15.9173C43.3041 16.3292 43.7434 16.6384 44.1068 16.4361L48.5001 14.0044L52.8934 16.4367C53.2534 16.637 53.6967 16.3339 53.6287 15.918L52.7841 10.7322L56.3574 7.06411C56.6407 6.77301 56.4787 6.28094 56.0754 6.21885Z" fill="#FFA41D"/>
<path d="M76.0754 6.21885L71.1567 5.46639L68.9521 0.763392C68.7874 0.412203 68.2121 0.412203 68.0474 0.763392L65.8434 5.46639L60.9248 6.21885C60.5208 6.28094 60.3594 6.77301 60.6428 7.06344L64.2161 10.7316L63.3714 15.9173C63.3041 16.3292 63.7434 16.6384 64.1068 16.4361L68.5001 14.0044L72.8934 16.4367C73.2534 16.637 73.6967 16.3339 73.6287 15.918L72.7841 10.7322L76.3574 7.06411C76.6407 6.77301 76.4787 6.28094 76.0754 6.21885Z" fill="#FFA41D"/>
<path d="M96.0754 6.21885L91.1567 5.46639L88.9521 0.763392C88.7874 0.412203 88.2121 0.412203 88.0474 0.763392L85.8434 5.46639L80.9248 6.21885C80.5208 6.28094 80.3594 6.77301 80.6428 7.06344L84.2161 10.7316L83.3714 15.9173C83.3041 16.3292 83.7434 16.6384 84.1068 16.4361L88.5001 14.0044L92.8934 16.4367C93.2534 16.637 93.6967 16.3339 93.6287 15.918L92.7841 10.7322L96.3574 7.06411C96.6407 6.77301 96.4787 6.28094 96.0754 6.21885Z" fill="#FFA41D"/>
</svg>
