<?xml version="1.0" encoding="utf-8"?>
<!-- Generator: Adobe Illustrator 26.3.1, SVG Export Plug-In . SVG Version: 6.00 Build 0)  -->
<svg version="1.1" id="Layer_1" xmlns="http://www.w3.org/2000/svg" xmlns:xlink="http://www.w3.org/1999/xlink" x="0px" y="0px"
	 viewBox="0 0 517 85.2" style="enable-background:new 0 0 517 85.2;" xml:space="preserve">
<style type="text/css">
	.st0{fill:#45B1C9;}
	.st1{fill:#111111;}
	.st2{fill:#FFC40F;}
	.st3{fill:#FE7315;}
	.st4{fill:#FF0000;}
	.st5{fill:#F4136B;}
	.st6{fill:#63C0AD;}
	.st7{fill:#82027E;}
</style>
<g>
	<g>
		<path class="st0" d="M415.2,28.6V13.9h3.9l0.1,2.9c0.7-1.8,2.2-3.1,4.3-3.1c0.3,0,0.7,0,0.9,0.1v3.8c-0.3,0-0.7-0.1-1.1-0.1
			c-2.7,0-4.1,1.4-4.1,4v7.1H415.2z"/>
		<path class="st0" d="M425.3,21.4v-0.4c0-4.5,2.9-7.5,7.6-7.5c5,0,7.5,3.5,7.2,8.7h-10.8c0.2,2.5,1.4,3.7,3.5,3.7
			c1.8,0,2.8-0.9,3.2-2h4c-0.7,3.1-3.3,5.1-7.2,5.1C428.2,29,425.3,26,425.3,21.4z M436.1,19.6c-0.2-1.9-1.2-3-3.2-3
			c-2,0-3.1,1-3.4,3H436.1z"/>
		<path class="st0" d="M445.8,28.6l-5.4-14.7h4.2l3.4,10.7l3.4-10.7h4.1l-5.3,14.7H445.8z"/>
		<path class="st0" d="M461.3,11.9h-4.2V7.5h4.2V11.9z M461.3,13.9v14.7h-4V13.9H461.3z"/>
		<path class="st0" d="M463.6,21.4v-0.4c0-4.5,2.9-7.5,7.6-7.5c5,0,7.5,3.5,7.2,8.7h-10.8c0.2,2.5,1.4,3.7,3.5,3.7
			c1.8,0,2.8-0.9,3.2-2h4c-0.7,3.1-3.3,5.1-7.2,5.1C466.4,29,463.6,26,463.6,21.4z M474.3,19.6c-0.2-1.9-1.2-3-3.2-3
			c-2,0-3.1,1-3.4,3H474.3z"/>
		<path class="st0" d="M483.1,28.6l-4.3-14.7h4l2.7,10.5l2.7-10.5h4l2.7,10.6l2.7-10.6h3.9L497,28.6h-4.2L490,18.3l-2.7,10.3H483.1z
			"/>
	</g>
	<path class="st1" d="M95.3,74.5V38.4H83v-8.6h35.3v8.6H106v36.1H95.3z"/>
	<path class="st1" d="M116.6,58.5v-0.6c0-9.8,6.8-16.7,17.1-16.7c10.3,0,17.1,6.9,17.1,16.7v0.6c0,9.9-6.7,16.8-17.1,16.8
		C123.4,75.3,116.6,68.4,116.6,58.5z M140.5,58.5v-0.6c0-5.9-2.1-9.1-6.9-9.1c-4.7,0-6.9,3.1-6.9,9.1v0.6c0,6,2.1,9.1,6.9,9.1
		C138.5,67.6,140.5,64.5,140.5,58.5z"/>
	<path class="st1" d="M155.6,85.2V42h9.4l0.3,5.2c1.4-3,4.9-6,10.1-6c8.8,0,14.1,7.2,14.1,16.7v0.6c0,9.6-5.3,16.8-14,16.8
		c-4.5,0-8-2.3-9.7-5.3v15.2H155.6z M179.3,58.5v-0.6c0-6-2.3-9.2-6.9-9.2s-6.9,3.1-6.9,9.2v0.6c0,6,2.3,9.2,6.9,9.2
		S179.3,64.5,179.3,58.5z"/>
	<path class="st1" d="M194.2,52.8v-1.3c0-13.2,8.7-22.5,22-22.5c11.6,0,19.3,7.2,19.9,18.1h-10.7c-0.4-6-4-9.4-9.4-9.4
		c-7,0-10.8,5.5-10.8,13.8v1.3c0,8.2,3.9,13.7,10.9,13.7c5.4,0,9-3.5,9.3-9.8h10.7c-0.6,11.1-8,18.6-19.9,18.6
		C202.6,75.3,194.2,66,194.2,52.8z"/>
	<path class="st1" d="M239.5,58.5v-0.6c0-9.8,6.8-16.7,17.1-16.7c10.3,0,17.1,6.9,17.1,16.7v0.6c0,9.9-6.7,16.8-17.1,16.8
		C246.3,75.3,239.5,68.4,239.5,58.5z M263.5,58.5v-0.6c0-5.9-2.1-9.1-6.9-9.1c-4.7,0-6.9,3.1-6.9,9.1v0.6c0,6,2.1,9.1,6.9,9.1
		C261.4,67.6,263.5,64.5,263.5,58.5z"/>
	<path class="st1" d="M278.6,74.5V42h9.6l0.3,5c1.6-2.9,4.8-5.8,10.3-5.8c8.2,0,11.3,5.2,11.3,12.5v20.9H300V56.2c0-4.4-1.4-7-5.2-7
		c-3.7,0-6.1,2.6-6.1,7.4v17.9H278.6z"/>
	<path class="st1" d="M314.3,64.1h9.6c0.4,2.8,2.6,4.3,5.9,4.3c3,0,4.8-1.2,4.8-3.1c0-1.8-1.1-2.8-6.9-3.8
		c-8.7-1.4-12.5-4.2-12.5-10c0-6.2,5.7-10.3,14.2-10.3c8.8,0,14,4,14.5,10.7h-9.4c-0.3-2.5-2.3-3.8-5.2-3.8c-2.8,0-4.4,1.1-4.4,2.9
		s1.3,2.7,6.9,3.5c9.2,1.3,12.8,4.4,12.8,9.9c0,6.5-5.7,11-14.8,11C320.2,75.3,314.8,71.1,314.3,64.1z"/>
	<path class="st1" d="M348.8,62.7V42h10.1v18.8c0,4.3,1.6,6.5,5,6.5c3.5,0,5.9-2.5,5.9-7.6V42h10.1v32.5h-9.7l-0.3-4.7
		c-1.8,2.8-5.1,5.5-9.8,5.5C352.3,75.3,348.8,70.4,348.8,62.7z"/>
	<path class="st1" d="M385.8,74.5V42h9.6l0.3,5c1.5-2.9,4.7-5.8,9.8-5.8c4.8,0,8.2,2,9.8,6c2.3-3.8,5.8-6,10.5-6
		c8,0,11.1,5.2,11.1,12.7v20.6h-10.1V55.8c0-4.5-1.7-6.6-4.8-6.6c-3.5,0-5.6,2.5-5.6,7.9v17.5h-10.1V55.8c0-4.4-1.5-6.7-4.7-6.7
		c-3.5,0-5.7,2.4-5.7,7.8v17.6H385.8z"/>
	<path class="st1" d="M441.5,58.5v-0.6c0-10,6.7-16.7,17.2-16.7c11.3,0,17,7.9,16.3,19.4h-23.5c0.4,5,2.8,7.4,7.1,7.4
		c3.6,0,5.6-1.8,6.3-3.8h9.9c-1.6,6.9-7.4,11.3-16.1,11.3C448,75.3,441.5,68.7,441.5,58.5z M464.9,54.7c-0.3-3.7-2.3-6.1-6.3-6.1
		c-4,0-6.2,1.9-6.9,6.1H464.9z"/>
	<path class="st1" d="M480,74.5V42h9.6l0.2,6.4c1.5-3.8,4.6-6.9,9.5-6.9c0.7,0,1.4,0.1,2,0.2v9.6c-0.7-0.1-1.7-0.1-2.6-0.1
		c-5.9,0-8.6,2.9-8.6,8.2v15.2H480z"/>
	<path class="st1" d="M502.5,74.5v-9.3h9.6v9.3H502.5z"/>
	<g>
		<rect x="26.9" y="6.8" class="st2" width="22.9" height="22.9"/>
		<polygon class="st3" points="72.7,29.7 49.8,29.7 49.8,6.8 		"/>
		<rect x="49.8" y="29.7" class="st4" width="22.9" height="22.9"/>
		<rect x="49.8" y="52.6" class="st5" width="22.9" height="22.9"/>
		<rect x="3.9" y="29.7" class="st6" width="22.9" height="22.9"/>
		<polygon class="st0" points="26.9,75.5 3.9,52.6 26.9,52.6 		"/>
		<rect x="26.9" y="52.6" class="st7" width="22.9" height="22.9"/>
	</g>
</g>
</svg>
