<svg width="98" height="18" viewBox="0 0 98 18" fill="none" xmlns="http://www.w3.org/2000/svg">
<g clip-path="url(#clip0_179_4608)">
<path d="M18 -0.000610352H0V17.9994H18V-0.000610352Z" fill="#00B67A"/>
<path d="M13.4806 15.6317L11.8946 10.6547L8.96484 12.7567L13.1879 15.8445C13.3353 15.954 13.5375 15.8087 13.4806 15.6338V15.6317Z" fill="url(#paint0_linear_179_4608)"/>
<path d="M4.41966 15.575L6.01409 10.7496C6.03937 10.6716 6.01409 10.5853 5.94669 10.5368L1.85846 7.5228C1.71103 7.41327 1.78896 7.17948 1.9722 7.17948L7.1957 7.20054H7.19991L8.85963 2.24664C8.91861 2.07182 9.16504 2.07393 9.22191 2.24875L10.7553 7.06995C10.7805 7.14788 10.8521 7.20265 10.9343 7.20265L16.0272 7.24477C16.2104 7.24477 16.2863 7.48067 16.1367 7.58809L11.8947 10.6527L11.8189 10.7074L11.7747 10.739L8.96073 12.7505L4.71032 15.7877C4.56078 15.8951 4.36279 15.7477 4.41966 15.5729V15.575Z" fill="white"/>
</g>
<g clip-path="url(#clip1_179_4608)">
<path d="M38 -0.000610352H20V17.9994H38V-0.000610352Z" fill="#00B67A"/>
<path d="M33.4806 15.6317L31.8946 10.6547L28.9648 12.7567L33.1879 15.8445C33.3353 15.954 33.5375 15.8087 33.4806 15.6338V15.6317Z" fill="url(#paint1_linear_179_4608)"/>
<path d="M24.4197 15.575L26.0141 10.7496C26.0394 10.6716 26.0141 10.5853 25.9467 10.5368L21.8585 7.5228C21.711 7.41327 21.789 7.17948 21.9722 7.17948L27.1957 7.20054H27.1999L28.8596 2.24664C28.9186 2.07182 29.165 2.07393 29.2219 2.24875L30.7553 7.06995C30.7805 7.14788 30.8521 7.20265 30.9343 7.20265L36.0272 7.24477C36.2104 7.24477 36.2863 7.48067 36.1367 7.58809L31.8947 10.6527L31.8189 10.7074L31.7747 10.739L28.9607 12.7505L24.7103 15.7877C24.5608 15.8951 24.3628 15.7477 24.4197 15.5729V15.575Z" fill="white"/>
</g>
<g clip-path="url(#clip2_179_4608)">
<path d="M58 -0.000610352H40V17.9994H58V-0.000610352Z" fill="#00B67A"/>
<path d="M53.4806 15.6317L51.8946 10.6547L48.9648 12.7567L53.1879 15.8445C53.3353 15.954 53.5375 15.8087 53.4806 15.6338V15.6317Z" fill="url(#paint2_linear_179_4608)"/>
<path d="M44.4197 15.575L46.0141 10.7496C46.0394 10.6716 46.0141 10.5853 45.9467 10.5368L41.8585 7.5228C41.711 7.41327 41.789 7.17948 41.9722 7.17948L47.1957 7.20054H47.1999L48.8596 2.24664C48.9186 2.07182 49.165 2.07393 49.2219 2.24875L50.7553 7.06995C50.7805 7.14788 50.8521 7.20265 50.9343 7.20265L56.0272 7.24477C56.2104 7.24477 56.2863 7.48067 56.1367 7.58809L51.8947 10.6527L51.8189 10.7074L51.7747 10.739L48.9607 12.7505L44.7103 15.7877C44.5608 15.8951 44.3628 15.7477 44.4197 15.5729V15.575Z" fill="white"/>
</g>
<g clip-path="url(#clip3_179_4608)">
<path d="M78 -0.000610352H60V17.9994H78V-0.000610352Z" fill="#DCDCE7"/>
<path d="M75 -0.000610352H60V17.9994H75V-0.000610352Z" fill="#00B67A"/>
<path d="M78 -0.000610352H60V17.9994H78V-0.000610352Z" fill="#00B67A"/>
<path d="M73.4806 15.6317L71.8946 10.6547L68.9648 12.7567L73.1879 15.8445C73.3353 15.954 73.5375 15.8087 73.4806 15.6338V15.6317Z" fill="url(#paint3_linear_179_4608)"/>
<path d="M64.4197 15.575L66.0141 10.7496C66.0394 10.6716 66.0141 10.5853 65.9467 10.5368L61.8585 7.5228C61.711 7.41327 61.789 7.17948 61.9722 7.17948L67.1957 7.20054H67.1999L68.8596 2.24664C68.9186 2.07182 69.165 2.07393 69.2219 2.24875L70.7553 7.06995C70.7805 7.14788 70.8521 7.20265 70.9343 7.20265L76.0272 7.24477C76.2104 7.24477 76.2863 7.48067 76.1367 7.58809L71.8947 10.6527L71.8189 10.7074L71.7747 10.739L68.9607 12.7505L64.7103 15.7877C64.5608 15.8951 64.3628 15.7477 64.4197 15.5729V15.575Z" fill="white"/>
</g>
<g clip-path="url(#clip4_179_4608)">
<path d="M98 -0.000610352H80V17.9994H98V-0.000610352Z" fill="#DCDCE7"/>
<path d="M82 -0.000610352H80V17.9994H82V-0.000610352Z" fill="#00B67A"/>
<path d="M93.4806 15.6317L91.8946 10.6547L88.9648 12.7567L93.1879 15.8445C93.3353 15.954 93.5375 15.8087 93.4806 15.6338V15.6317Z" fill="url(#paint4_linear_179_4608)"/>
<path d="M84.4197 15.575L86.0141 10.7496C86.0394 10.6716 86.0141 10.5853 85.9467 10.5368L81.8585 7.5228C81.711 7.41327 81.789 7.17948 81.9722 7.17948L87.1957 7.20054H87.1999L88.8596 2.24664C88.9186 2.07182 89.165 2.07393 89.2219 2.24875L90.7553 7.06995C90.7805 7.14788 90.8521 7.20265 90.9343 7.20265L96.0272 7.24477C96.2104 7.24477 96.2863 7.48067 96.1367 7.58809L91.8947 10.6527L91.8189 10.7074L91.7747 10.739L88.9607 12.7505L84.7103 15.7877C84.5608 15.8951 84.3628 15.7477 84.4197 15.5729V15.575Z" fill="white"/>
</g>
<defs>
<linearGradient id="paint0_linear_179_4608" x1="14.3469" y1="14.6009" x2="9.98808" y2="11.3799" gradientUnits="userSpaceOnUse">
<stop stop-color="white"/>
<stop offset="0.34" stop-color="#FCFCFC"/>
<stop offset="0.52" stop-color="#F4F4F4"/>
<stop offset="0.66" stop-color="#E7E7E7"/>
<stop offset="0.78" stop-color="#D4D4D4"/>
<stop offset="0.89" stop-color="#BBBBBB"/>
<stop offset="0.99" stop-color="#9D9D9D"/>
<stop offset="1" stop-color="#999999"/>
</linearGradient>
<linearGradient id="paint1_linear_179_4608" x1="34.3469" y1="14.6009" x2="29.9881" y2="11.3799" gradientUnits="userSpaceOnUse">
<stop stop-color="white"/>
<stop offset="0.34" stop-color="#FCFCFC"/>
<stop offset="0.52" stop-color="#F4F4F4"/>
<stop offset="0.66" stop-color="#E7E7E7"/>
<stop offset="0.78" stop-color="#D4D4D4"/>
<stop offset="0.89" stop-color="#BBBBBB"/>
<stop offset="0.99" stop-color="#9D9D9D"/>
<stop offset="1" stop-color="#999999"/>
</linearGradient>
<linearGradient id="paint2_linear_179_4608" x1="54.3469" y1="14.6009" x2="49.9881" y2="11.3799" gradientUnits="userSpaceOnUse">
<stop stop-color="white"/>
<stop offset="0.34" stop-color="#FCFCFC"/>
<stop offset="0.52" stop-color="#F4F4F4"/>
<stop offset="0.66" stop-color="#E7E7E7"/>
<stop offset="0.78" stop-color="#D4D4D4"/>
<stop offset="0.89" stop-color="#BBBBBB"/>
<stop offset="0.99" stop-color="#9D9D9D"/>
<stop offset="1" stop-color="#999999"/>
</linearGradient>
<linearGradient id="paint3_linear_179_4608" x1="74.3447" y1="14.6008" x2="69.9873" y2="11.3772" gradientUnits="userSpaceOnUse">
<stop stop-color="white"/>
<stop offset="0.34" stop-color="#FCFCFC"/>
<stop offset="0.52" stop-color="#F4F4F4"/>
<stop offset="0.66" stop-color="#E7E7E7"/>
<stop offset="0.78" stop-color="#D4D4D4"/>
<stop offset="0.89" stop-color="#BBBBBB"/>
<stop offset="0.99" stop-color="#9D9D9D"/>
<stop offset="1" stop-color="#999999"/>
</linearGradient>
<linearGradient id="paint4_linear_179_4608" x1="94.3447" y1="14.6008" x2="89.9873" y2="11.3772" gradientUnits="userSpaceOnUse">
<stop stop-color="white"/>
<stop offset="0.34" stop-color="#FCFCFC"/>
<stop offset="0.52" stop-color="#F4F4F4"/>
<stop offset="0.66" stop-color="#E7E7E7"/>
<stop offset="0.78" stop-color="#D4D4D4"/>
<stop offset="0.89" stop-color="#BBBBBB"/>
<stop offset="0.99" stop-color="#9D9D9D"/>
<stop offset="1" stop-color="#999999"/>
</linearGradient>
<clipPath id="clip0_179_4608">
<rect width="18" height="18" fill="white" transform="translate(0 -0.000610352)"/>
</clipPath>
<clipPath id="clip1_179_4608">
<rect width="18" height="18" fill="white" transform="translate(20 -0.000610352)"/>
</clipPath>
<clipPath id="clip2_179_4608">
<rect width="18" height="18" fill="white" transform="translate(40 -0.000610352)"/>
</clipPath>
<clipPath id="clip3_179_4608">
<rect width="18" height="18" fill="white" transform="translate(60 -0.000610352)"/>
</clipPath>
<clipPath id="clip4_179_4608">
<rect width="18" height="18" fill="white" transform="translate(80 -0.000610352)"/>
</clipPath>
</defs>
</svg>
