<svg width="98" height="18" viewBox="0 0 98 18" fill="none" xmlns="http://www.w3.org/2000/svg">
<g clip-path="url(#clip0_554_956)">
<path d="M18 -0.000488281H0V17.9995H18V-0.000488281Z" fill="#00B67A"/>
<path d="M13.4806 15.6319L11.8946 10.6548L8.96484 12.7568L13.1879 15.8446C13.3353 15.9541 13.5375 15.8088 13.4806 15.634V15.6319Z" fill="url(#paint0_linear_554_956)"/>
<path d="M4.41966 15.5751L6.01409 10.7497C6.03937 10.6718 6.01409 10.5854 5.94669 10.537L1.85846 7.52292C1.71103 7.41339 1.78896 7.1796 1.9722 7.1796L7.1957 7.20066H7.19991L8.85963 2.24676C8.91861 2.07195 9.16504 2.07405 9.22191 2.24887L10.7553 7.07007C10.7805 7.14801 10.8521 7.20277 10.9343 7.20277L16.0272 7.24489C16.2104 7.24489 16.2863 7.48079 16.1367 7.58821L11.8947 10.6528L11.8189 10.7076L11.7747 10.7392L8.96073 12.7506L4.71032 15.7878C4.56078 15.8953 4.36279 15.7478 4.41966 15.573V15.5751Z" fill="white"/>
</g>
<g clip-path="url(#clip1_554_956)">
<path d="M38 -0.000488281H20V17.9995H38V-0.000488281Z" fill="#00B67A"/>
<path d="M33.4806 15.6319L31.8946 10.6548L28.9648 12.7568L33.1879 15.8446C33.3353 15.9541 33.5375 15.8088 33.4806 15.634V15.6319Z" fill="url(#paint1_linear_554_956)"/>
<path d="M24.4197 15.5751L26.0141 10.7497C26.0394 10.6718 26.0141 10.5854 25.9467 10.537L21.8585 7.52292C21.711 7.41339 21.789 7.1796 21.9722 7.1796L27.1957 7.20066H27.1999L28.8596 2.24676C28.9186 2.07195 29.165 2.07405 29.2219 2.24887L30.7553 7.07007C30.7805 7.14801 30.8521 7.20277 30.9343 7.20277L36.0272 7.24489C36.2104 7.24489 36.2863 7.48079 36.1367 7.58821L31.8947 10.6528L31.8189 10.7076L31.7747 10.7392L28.9607 12.7506L24.7103 15.7878C24.5608 15.8953 24.3628 15.7478 24.4197 15.573V15.5751Z" fill="white"/>
</g>
<g clip-path="url(#clip2_554_956)">
<path d="M58 -0.000488281H40V17.9995H58V-0.000488281Z" fill="#DCDCE7"/>
<path d="M55 -0.000488281H40V17.9995H55V-0.000488281Z" fill="#00B67A"/>
<path d="M58 -0.000488281H40V17.9995H58V-0.000488281Z" fill="#00B67A"/>
<path d="M53.4806 15.6319L51.8946 10.6548L48.9648 12.7568L53.1879 15.8446C53.3353 15.9541 53.5375 15.8088 53.4806 15.634V15.6319Z" fill="url(#paint2_linear_554_956)"/>
<path d="M44.4197 15.5751L46.0141 10.7497C46.0394 10.6718 46.0141 10.5854 45.9467 10.537L41.8585 7.52292C41.711 7.41339 41.789 7.1796 41.9722 7.1796L47.1957 7.20066H47.1999L48.8596 2.24676C48.9186 2.07195 49.165 2.07405 49.2219 2.24887L50.7553 7.07007C50.7805 7.14801 50.8521 7.20277 50.9343 7.20277L56.0272 7.24489C56.2104 7.24489 56.2863 7.48079 56.1367 7.58821L51.8947 10.6528L51.8189 10.7076L51.7747 10.7392L48.9607 12.7506L44.7103 15.7878C44.5608 15.8953 44.3628 15.7478 44.4197 15.573V15.5751Z" fill="white"/>
</g>
<g clip-path="url(#clip3_554_956)">
<path d="M78 -0.000488281H60V17.9995H78V-0.000488281Z" fill="#DCDCE7"/>
<path d="M64 -0.000488281H60V17.9995H64V-0.000488281Z" fill="#00B67A"/>
<path d="M73.4806 15.6319L71.8946 10.6548L68.9648 12.7568L73.1879 15.8446C73.3353 15.9541 73.5375 15.8088 73.4806 15.634V15.6319Z" fill="url(#paint3_linear_554_956)"/>
<path d="M64.4197 15.5751L66.0141 10.7497C66.0394 10.6718 66.0141 10.5854 65.9467 10.537L61.8585 7.52292C61.711 7.41339 61.789 7.1796 61.9722 7.1796L67.1957 7.20066H67.1999L68.8596 2.24676C68.9186 2.07195 69.165 2.07405 69.2219 2.24887L70.7553 7.07007C70.7805 7.14801 70.8521 7.20277 70.9343 7.20277L76.0272 7.24489C76.2104 7.24489 76.2863 7.48079 76.1367 7.58821L71.8947 10.6528L71.8189 10.7076L71.7747 10.7392L68.9607 12.7506L64.7103 15.7878C64.5608 15.8953 64.3628 15.7478 64.4197 15.573V15.5751Z" fill="white"/>
</g>
<g clip-path="url(#clip4_554_956)">
<path d="M98 -0.000488281H80V17.9995H98V-0.000488281Z" fill="#DCDCE7"/>
<path d="M93.4806 15.6319L91.8946 10.6548L88.9648 12.7568L93.1879 15.8446C93.3353 15.9541 93.5375 15.8088 93.4806 15.634V15.6319Z" fill="url(#paint4_linear_554_956)"/>
<path d="M84.4197 15.5751L86.0141 10.7497C86.0394 10.6718 86.0141 10.5854 85.9467 10.537L81.8585 7.52292C81.711 7.41339 81.789 7.1796 81.9722 7.1796L87.1957 7.20066H87.1999L88.8596 2.24676C88.9186 2.07195 89.165 2.07405 89.2219 2.24887L90.7553 7.07007C90.7805 7.14801 90.8521 7.20277 90.9343 7.20277L96.0272 7.24489C96.2104 7.24489 96.2863 7.48079 96.1367 7.58821L91.8947 10.6528L91.8189 10.7076L91.7747 10.7392L88.9607 12.7506L84.7103 15.7878C84.5608 15.8953 84.3628 15.7478 84.4197 15.573V15.5751Z" fill="white"/>
</g>
<defs>
<linearGradient id="paint0_linear_554_956" x1="14.3469" y1="14.601" x2="9.98808" y2="11.38" gradientUnits="userSpaceOnUse">
<stop stop-color="white"/>
<stop offset="0.34" stop-color="#FCFCFC"/>
<stop offset="0.52" stop-color="#F4F4F4"/>
<stop offset="0.66" stop-color="#E7E7E7"/>
<stop offset="0.78" stop-color="#D4D4D4"/>
<stop offset="0.89" stop-color="#BBBBBB"/>
<stop offset="0.99" stop-color="#9D9D9D"/>
<stop offset="1" stop-color="#999999"/>
</linearGradient>
<linearGradient id="paint1_linear_554_956" x1="34.3469" y1="14.601" x2="29.9881" y2="11.38" gradientUnits="userSpaceOnUse">
<stop stop-color="white"/>
<stop offset="0.34" stop-color="#FCFCFC"/>
<stop offset="0.52" stop-color="#F4F4F4"/>
<stop offset="0.66" stop-color="#E7E7E7"/>
<stop offset="0.78" stop-color="#D4D4D4"/>
<stop offset="0.89" stop-color="#BBBBBB"/>
<stop offset="0.99" stop-color="#9D9D9D"/>
<stop offset="1" stop-color="#999999"/>
</linearGradient>
<linearGradient id="paint2_linear_554_956" x1="54.3447" y1="14.6009" x2="49.9873" y2="11.3773" gradientUnits="userSpaceOnUse">
<stop stop-color="white"/>
<stop offset="0.34" stop-color="#FCFCFC"/>
<stop offset="0.52" stop-color="#F4F4F4"/>
<stop offset="0.66" stop-color="#E7E7E7"/>
<stop offset="0.78" stop-color="#D4D4D4"/>
<stop offset="0.89" stop-color="#BBBBBB"/>
<stop offset="0.99" stop-color="#9D9D9D"/>
<stop offset="1" stop-color="#999999"/>
</linearGradient>
<linearGradient id="paint3_linear_554_956" x1="74.3447" y1="14.6009" x2="69.9873" y2="11.3773" gradientUnits="userSpaceOnUse">
<stop stop-color="white"/>
<stop offset="0.34" stop-color="#FCFCFC"/>
<stop offset="0.52" stop-color="#F4F4F4"/>
<stop offset="0.66" stop-color="#E7E7E7"/>
<stop offset="0.78" stop-color="#D4D4D4"/>
<stop offset="0.89" stop-color="#BBBBBB"/>
<stop offset="0.99" stop-color="#9D9D9D"/>
<stop offset="1" stop-color="#999999"/>
</linearGradient>
<linearGradient id="paint4_linear_554_956" x1="94.3447" y1="14.6009" x2="89.9873" y2="11.3773" gradientUnits="userSpaceOnUse">
<stop stop-color="white"/>
<stop offset="0.34" stop-color="#FCFCFC"/>
<stop offset="0.52" stop-color="#F4F4F4"/>
<stop offset="0.66" stop-color="#E7E7E7"/>
<stop offset="0.78" stop-color="#D4D4D4"/>
<stop offset="0.89" stop-color="#BBBBBB"/>
<stop offset="0.99" stop-color="#9D9D9D"/>
<stop offset="1" stop-color="#999999"/>
</linearGradient>
<clipPath id="clip0_554_956">
<rect width="18" height="18" fill="white" transform="translate(0 -0.000488281)"/>
</clipPath>
<clipPath id="clip1_554_956">
<rect width="18" height="18" fill="white" transform="translate(20 -0.000488281)"/>
</clipPath>
<clipPath id="clip2_554_956">
<rect width="18" height="18" fill="white" transform="translate(40 -0.000488281)"/>
</clipPath>
<clipPath id="clip3_554_956">
<rect width="18" height="18" fill="white" transform="translate(60 -0.000488281)"/>
</clipPath>
<clipPath id="clip4_554_956">
<rect width="18" height="18" fill="white" transform="translate(80 -0.000488281)"/>
</clipPath>
</defs>
</svg>
