<svg width="96" height="17" viewBox="0 0 96 17" fill="none" xmlns="http://www.w3.org/2000/svg">
<path d="M15.5754 5.99711L10.6567 5.24465L8.45208 0.541651C8.28741 0.190462 7.71208 0.190462 7.54741 0.541651L5.34342 5.24465L0.424765 5.99711C0.0207661 6.0592 -0.140567 6.55127 0.142766 6.8417L3.71609 10.5098L2.87143 15.6955C2.80409 16.1075 3.24342 16.4166 3.60676 16.2143L8.00008 13.7827L12.3934 16.215C12.7534 16.4153 13.1967 16.1122 13.1287 15.6962L12.2841 10.5105L15.8574 6.84237C16.1407 6.55127 15.9787 6.0592 15.5754 5.99711Z" fill="#FFCB13"/>
<path d="M35.5754 5.99711L30.6567 5.24465L28.4521 0.541651C28.2874 0.190462 27.7121 0.190462 27.5474 0.541651L25.3434 5.24465L20.4248 5.99711C20.0208 6.0592 19.8594 6.55127 20.1428 6.8417L23.7161 10.5098L22.8714 15.6955C22.8041 16.1075 23.2434 16.4166 23.6068 16.2143L28.0001 13.7827L32.3934 16.215C32.7534 16.4153 33.1967 16.1122 33.1287 15.6962L32.2841 10.5105L35.8574 6.84237C36.1407 6.55127 35.9787 6.0592 35.5754 5.99711Z" fill="#FFCB13"/>
<path d="M55.5754 5.99711L50.6567 5.24465L48.4521 0.541651C48.2874 0.190462 47.7121 0.190462 47.5474 0.541651L45.3434 5.24465L40.4248 5.99711C40.0208 6.0592 39.8594 6.55127 40.1428 6.8417L43.7161 10.5098L42.8714 15.6955C42.8041 16.1075 43.2434 16.4166 43.6068 16.2143L48.0001 13.7827L52.3934 16.215C52.7534 16.4153 53.1967 16.1122 53.1287 15.6962L52.2841 10.5105L55.8574 6.84237C56.1407 6.55127 55.9787 6.0592 55.5754 5.99711Z" fill="#FFCB13"/>
<path d="M75.5754 5.99711L70.6567 5.24465L68.4521 0.541651C68.2874 0.190462 67.7121 0.190462 67.5474 0.541651L65.3434 5.24465L60.4248 5.99711C60.0208 6.0592 59.8594 6.55127 60.1428 6.8417L63.7161 10.5098L62.8714 15.6955C62.8041 16.1075 63.2434 16.4166 63.6068 16.2143L68.0001 13.7827L72.3934 16.215C72.7534 16.4153 73.1967 16.1122 73.1287 15.6962L72.2841 10.5105L75.8574 6.84237C76.1407 6.55127 75.9787 6.0592 75.5754 5.99711Z" fill="#FFCB13"/>
<path d="M95.5754 5.99711L90.6567 5.24465L88.4521 0.541651C88.2874 0.190462 87.7121 0.190462 87.5474 0.541651L85.3434 5.24465L80.4248 5.99711C80.0208 6.0592 79.8594 6.55127 80.1428 6.8417L83.7161 10.5098L82.8714 15.6955C82.8041 16.1075 83.2434 16.4166 83.6068 16.2143L88.0001 13.7827L92.3934 16.215C92.7534 16.4153 93.1967 16.1122 93.1287 15.6962L92.2841 10.5105L95.8574 6.84237C96.1407 6.55127 95.9787 6.0592 95.5754 5.99711Z" fill="#FFCB13"/>
</svg>
