<svg width="30" height="31" viewBox="0 0 30 31" fill="none" xmlns="http://www.w3.org/2000/svg">
<g id="Quotation mark">
<g id="Group">
<path id="Vector" d="M12.9168 2.66263V7.66868C12.9168 8.34761 12.3664 8.89771 11.6875 8.89771C9.26518 8.89771 7.94754 11.3822 7.76491 16.2857H11.6875C12.3664 16.2857 12.9168 16.8363 12.9168 17.515V28.085C12.9168 28.7636 12.3664 29.3138 11.6875 29.3138H1.22904C0.549848 29.3138 0 28.7632 0 28.085V17.515C0 15.1643 0.236681 13.0072 0.703252 11.1029C1.18177 9.15021 1.91631 7.44291 2.8858 6.02824C3.8834 4.57438 5.13126 3.43352 6.595 2.63874C8.06863 1.83915 9.78228 1.43359 11.6879 1.43359C12.3664 1.43359 12.9168 1.9837 12.9168 2.66263ZM28.7706 8.8978C29.4492 8.8978 30 8.34718 30 7.66876V2.66272C30 1.98379 29.4493 1.43368 28.7706 1.43368C26.8657 1.43368 25.1518 1.83932 23.6787 2.63883C22.2147 3.43361 20.9662 4.57447 19.9684 6.02833C18.9992 7.443 18.2647 9.15038 17.7861 11.1035C17.3198 13.0084 17.0831 15.1655 17.0831 17.5151V28.0851C17.0831 28.7637 17.6337 29.3139 18.3124 29.3139H28.7705C29.4491 29.3139 29.9994 28.7632 29.9994 28.0851V17.515C29.9994 16.8364 29.4492 16.2857 28.7705 16.2857H24.9039C25.0838 11.3823 26.3822 8.8978 28.7706 8.8978Z" fill="#E0E0E0"/>
</g>
</g>
</svg>
