<svg width="30" height="31" viewBox="0 0 30 31" fill="none" xmlns="http://www.w3.org/2000/svg">
<g id="Quotation mark">
<g id="Group">
<path id="Vector" d="M17.0832 28.0847L17.0832 23.0786C17.0832 22.3997 17.6336 21.8496 18.3125 21.8496C20.7348 21.8496 22.0525 19.3651 22.2351 14.4616L18.3125 14.4616C17.6336 14.4616 17.0832 13.911 17.0832 13.2323L17.0832 2.66231C17.0832 1.98373 17.6336 1.43354 18.3125 1.43354L28.771 1.43354C29.4502 1.43354 30 1.98416 30 2.66232L30 13.2323C30 15.583 29.7633 17.7401 29.2967 19.6444C28.8182 21.5971 28.0837 23.3044 27.1142 24.7191C26.1166 26.1729 24.8687 27.3138 23.405 28.1086C21.9314 28.9082 20.2177 29.3137 18.3121 29.3137C17.6336 29.3137 17.0832 28.7636 17.0832 28.0847ZM1.22938 21.8495C0.550795 21.8495 2.51175e-06 22.4001 2.45244e-06 23.0786L2.0148e-06 28.0846C1.95545e-06 28.7635 0.550709 29.3136 1.22938 29.3136C3.13426 29.3136 4.84817 28.908 6.32128 28.1085C7.78528 27.3137 9.03383 26.1728 10.0316 24.719C11.0008 23.3043 11.7353 21.5969 12.2139 19.6438C12.6802 17.7389 12.9169 15.5818 12.9169 13.2322L12.9169 2.66223C12.9169 1.98364 12.3664 1.43345 11.6876 1.43345L1.22947 1.43345C0.550883 1.43345 0.000603204 1.98407 0.000603145 2.66223L0.000602221 13.2323C0.000602161 13.9109 0.550796 14.4616 1.22947 14.4616L5.09611 14.4616C4.91624 19.3651 3.61785 21.8495 1.22938 21.8495Z" fill="#E0E0E0"/>
</g>
</g>
</svg>
