<svg width="31" height="16" viewBox="0 0 31 16" fill="none" xmlns="http://www.w3.org/2000/svg">
<g id="Flag_of_the_United_States 1" clip-path="url(#clip0_199_28715)">
<path id="Vector" d="M32 0H0V16H32V0Z" fill="#B22234"/>
<g id="Vector_2">
<path d="M0 2H32H0ZM32 4.4H0H32ZM0 6.8H32H0ZM32 9.2H0H32ZM0 11.6H32H0ZM32 14H0H32Z" fill="black"/>
<path d="M0 2H32M32 4.4H0M0 6.8H32M32 9.2H0M0 11.6H32M32 14H0" stroke="white" stroke-width="1.2"/>
</g>
<path id="Vector_3" d="M12.48 0H0V8.61538H12.48V0Z" fill="#3C3B6E"/>
<g id="Group">
<g id="s18">
<g id="s9">
<g id="s5">
<g id="s4">
<path id="s" d="M1.03717 0.368652L1.33416 1.25925L0.556641 0.708829H1.51771L0.740188 1.25925L1.03717 0.368652Z" fill="white"/>
<path id="s_2" d="M1.03717 2.09058L1.33416 2.98117L0.556641 2.43075H1.51771L0.740188 2.98117L1.03717 2.09058Z" fill="white"/>
<path id="s_3" d="M1.03717 3.81543L1.33416 4.70602L0.556641 4.15561H1.51771L0.740188 4.70602L1.03717 3.81543Z" fill="white"/>
<path id="s_4" d="M1.03717 5.53906L1.33416 6.42966L0.556641 5.87924H1.51771L0.740188 6.42966L1.03717 5.53906Z" fill="white"/>
</g>
<path id="s_5" d="M1.03717 7.26074L1.33416 8.15134L0.556641 7.60092H1.51771L0.740188 8.15134L1.03717 7.26074Z" fill="white"/>
</g>
<g id="s4_2">
<path id="s_6" d="M2.07428 1.22949L2.37127 2.12009L1.59375 1.56967H2.55482L1.7773 2.12009L2.07428 1.22949Z" fill="white"/>
<path id="s_7" d="M2.07428 2.95288L2.37127 3.84347L1.59375 3.29306H2.55482L1.7773 3.84347L2.07428 2.95288Z" fill="white"/>
<path id="s_8" d="M2.07428 4.67627L2.37127 5.56686L1.59375 5.01645H2.55482L1.7773 5.56686L2.07428 4.67627Z" fill="white"/>
<path id="s_9" d="M2.07428 6.3999L2.37127 7.2905L1.59375 6.74008H2.55482L1.7773 7.2905L2.07428 6.3999Z" fill="white"/>
</g>
</g>
<g id="s9_2">
<g id="s5_2">
<g id="s4_3">
<path id="s_10" d="M3.11823 0.368652L3.41522 1.25925L2.6377 0.708829H3.59876L2.82124 1.25925L3.11823 0.368652Z" fill="white"/>
<path id="s_11" d="M3.11823 2.09058L3.41522 2.98117L2.6377 2.43075H3.59876L2.82124 2.98117L3.11823 2.09058Z" fill="white"/>
<path id="s_12" d="M3.11823 3.81543L3.41522 4.70602L2.6377 4.15561H3.59876L2.82124 4.70602L3.11823 3.81543Z" fill="white"/>
<path id="s_13" d="M3.11823 5.53906L3.41522 6.42966L2.6377 5.87924H3.59876L2.82124 6.42966L3.11823 5.53906Z" fill="white"/>
</g>
<path id="s_14" d="M3.11823 7.26074L3.41522 8.15134L2.6377 7.60092H3.59876L2.82124 8.15134L3.11823 7.26074Z" fill="white"/>
</g>
<g id="s4_4">
<path id="s_15" d="M4.15534 1.22949L4.45232 2.12009L3.6748 1.56967H4.63587L3.85835 2.12009L4.15534 1.22949Z" fill="white"/>
<path id="s_16" d="M4.15534 2.95288L4.45232 3.84347L3.6748 3.29306H4.63587L3.85835 3.84347L4.15534 2.95288Z" fill="white"/>
<path id="s_17" d="M4.15534 4.67627L4.45232 5.56686L3.6748 5.01645H4.63587L3.85835 5.56686L4.15534 4.67627Z" fill="white"/>
<path id="s_18" d="M4.15534 6.3999L4.45232 7.2905L3.6748 6.74008H4.63587L3.85835 7.2905L4.15534 6.3999Z" fill="white"/>
</g>
</g>
</g>
<g id="s18_2">
<g id="s9_3">
<g id="s5_3">
<g id="s4_5">
<path id="s_19" d="M5.19928 0.368652L5.49627 1.25925L4.71875 0.708829H5.67982L4.9023 1.25925L5.19928 0.368652Z" fill="white"/>
<path id="s_20" d="M5.19928 2.09058L5.49627 2.98117L4.71875 2.43075H5.67982L4.9023 2.98117L5.19928 2.09058Z" fill="white"/>
<path id="s_21" d="M5.19928 3.81543L5.49627 4.70602L4.71875 4.15561H5.67982L4.9023 4.70602L5.19928 3.81543Z" fill="white"/>
<path id="s_22" d="M5.19928 5.53906L5.49627 6.42966L4.71875 5.87924H5.67982L4.9023 6.42966L5.19928 5.53906Z" fill="white"/>
</g>
<path id="s_23" d="M5.19928 7.26074L5.49627 8.15134L4.71875 7.60092H5.67982L4.9023 8.15134L5.19928 7.26074Z" fill="white"/>
</g>
<g id="s4_6">
<path id="s_24" d="M6.23639 1.22949L6.53338 2.12009L5.75586 1.56967H6.71693L5.93941 2.12009L6.23639 1.22949Z" fill="white"/>
<path id="s_25" d="M6.23639 2.95288L6.53338 3.84347L5.75586 3.29306H6.71693L5.93941 3.84347L6.23639 2.95288Z" fill="white"/>
<path id="s_26" d="M6.23639 4.67627L6.53338 5.56686L5.75586 5.01645H6.71693L5.93941 5.56686L6.23639 4.67627Z" fill="white"/>
<path id="s_27" d="M6.23639 6.3999L6.53338 7.2905L5.75586 6.74008H6.71693L5.93941 7.2905L6.23639 6.3999Z" fill="white"/>
</g>
</g>
<g id="s9_4">
<g id="s5_4">
<g id="s4_7">
<path id="s_28" d="M7.28034 0.368652L7.57732 1.25925L6.7998 0.708829H7.76087L6.98335 1.25925L7.28034 0.368652Z" fill="white"/>
<path id="s_29" d="M7.28034 2.09058L7.57732 2.98117L6.7998 2.43075H7.76087L6.98335 2.98117L7.28034 2.09058Z" fill="white"/>
<path id="s_30" d="M7.28034 3.81543L7.57732 4.70602L6.7998 4.15561H7.76087L6.98335 4.70602L7.28034 3.81543Z" fill="white"/>
<path id="s_31" d="M7.28034 5.53906L7.57732 6.42966L6.7998 5.87924H7.76087L6.98335 6.42966L7.28034 5.53906Z" fill="white"/>
</g>
<path id="s_32" d="M7.28034 7.26074L7.57732 8.15134L6.7998 7.60092H7.76087L6.98335 8.15134L7.28034 7.26074Z" fill="white"/>
</g>
<g id="s4_8">
<path id="s_33" d="M8.31745 1.22949L8.61443 2.12009L7.83691 1.56967H8.79798L8.02046 2.12009L8.31745 1.22949Z" fill="white"/>
<path id="s_34" d="M8.31745 2.95288L8.61443 3.84347L7.83691 3.29306H8.79798L8.02046 3.84347L8.31745 2.95288Z" fill="white"/>
<path id="s_35" d="M8.31745 4.67627L8.61443 5.56686L7.83691 5.01645H8.79798L8.02046 5.56686L8.31745 4.67627Z" fill="white"/>
<path id="s_36" d="M8.31745 6.3999L8.61443 7.2905L7.83691 6.74008H8.79798L8.02046 7.2905L8.31745 6.3999Z" fill="white"/>
</g>
</g>
</g>
<g id="s9_5">
<g id="s5_5">
<g id="s4_9">
<path id="s_37" d="M9.35553 0.368652L9.65252 1.25925L8.875 0.708829H9.83607L9.05855 1.25925L9.35553 0.368652Z" fill="white"/>
<path id="s_38" d="M9.35553 2.09058L9.65252 2.98117L8.875 2.43075H9.83607L9.05855 2.98117L9.35553 2.09058Z" fill="white"/>
<path id="s_39" d="M9.35553 3.81543L9.65252 4.70602L8.875 4.15561H9.83607L9.05855 4.70602L9.35553 3.81543Z" fill="white"/>
<path id="s_40" d="M9.35553 5.53906L9.65252 6.42966L8.875 5.87924H9.83607L9.05855 6.42966L9.35553 5.53906Z" fill="white"/>
</g>
<path id="s_41" d="M9.35553 7.26074L9.65252 8.15134L8.875 7.60092H9.83607L9.05855 8.15134L9.35553 7.26074Z" fill="white"/>
</g>
<g id="s4_10">
<path id="s_42" d="M10.3926 1.22949L10.6896 2.12009L9.91211 1.56967H10.8732L10.0957 2.12009L10.3926 1.22949Z" fill="white"/>
<path id="s_43" d="M10.3926 2.95288L10.6896 3.84347L9.91211 3.29306H10.8732L10.0957 3.84347L10.3926 2.95288Z" fill="white"/>
<path id="s_44" d="M10.3926 4.67627L10.6896 5.56686L9.91211 5.01645H10.8732L10.0957 5.56686L10.3926 4.67627Z" fill="white"/>
<path id="s_45" d="M10.3926 6.3999L10.6896 7.2905L9.91211 6.74008H10.8732L10.0957 7.2905L10.3926 6.3999Z" fill="white"/>
</g>
</g>
<g id="s5_6">
<g id="s4_11">
<path id="s_46" d="M11.4376 0.368652L11.7346 1.25925L10.957 0.708829H11.9181L11.1406 1.25925L11.4376 0.368652Z" fill="white"/>
<path id="s_47" d="M11.4376 2.09058L11.7346 2.98117L10.957 2.43075H11.9181L11.1406 2.98117L11.4376 2.09058Z" fill="white"/>
<path id="s_48" d="M11.4376 3.81543L11.7346 4.70602L10.957 4.15561H11.9181L11.1406 4.70602L11.4376 3.81543Z" fill="white"/>
<path id="s_49" d="M11.4376 5.53906L11.7346 6.42966L10.957 5.87924H11.9181L11.1406 6.42966L11.4376 5.53906Z" fill="white"/>
</g>
<path id="s_50" d="M11.4376 7.26074L11.7346 8.15134L10.957 7.60092H11.9181L11.1406 8.15134L11.4376 7.26074Z" fill="white"/>
</g>
</g>
</g>
<defs>
<clipPath id="clip0_199_28715">
<rect width="31.2" height="16" fill="white"/>
</clipPath>
</defs>
</svg>
