<svg width="98" height="18" viewBox="0 0 98 18" fill="none" xmlns="http://www.w3.org/2000/svg">
<g clip-path="url(#clip0_541_11386)">
<path d="M18 -0.0012207H0V17.9988H18V-0.0012207Z" fill="#00B67A"/>
<path d="M13.4806 15.6311L11.8946 10.6541L8.96484 12.7561L13.1879 15.8438C13.3353 15.9534 13.5375 15.808 13.4806 15.6332V15.6311Z" fill="url(#paint0_linear_541_11386)"/>
<path d="M4.41966 15.5744L6.01409 10.749C6.03937 10.671 6.01409 10.5847 5.94669 10.5362L1.85846 7.52219C1.71103 7.41266 1.78896 7.17887 1.9722 7.17887L7.1957 7.19993H7.19991L8.85963 2.24603C8.91861 2.07121 9.16504 2.07332 9.22191 2.24814L10.7553 7.06934C10.7805 7.14727 10.8521 7.20204 10.9343 7.20204L16.0272 7.24416C16.2104 7.24416 16.2863 7.48006 16.1367 7.58748L11.8947 10.6521L11.8189 10.7068L11.7747 10.7384L8.96073 12.7499L4.71032 15.7871C4.56078 15.8945 4.36279 15.7471 4.41966 15.5723V15.5744Z" fill="white"/>
</g>
<g clip-path="url(#clip1_541_11386)">
<path d="M38 -0.0012207H20V17.9988H38V-0.0012207Z" fill="#00B67A"/>
<path d="M33.4806 15.6311L31.8946 10.6541L28.9648 12.7561L33.1879 15.8438C33.3353 15.9534 33.5375 15.808 33.4806 15.6332V15.6311Z" fill="url(#paint1_linear_541_11386)"/>
<path d="M24.4197 15.5744L26.0141 10.749C26.0394 10.671 26.0141 10.5847 25.9467 10.5362L21.8585 7.52219C21.711 7.41266 21.789 7.17887 21.9722 7.17887L27.1957 7.19993H27.1999L28.8596 2.24603C28.9186 2.07121 29.165 2.07332 29.2219 2.24814L30.7553 7.06934C30.7805 7.14727 30.8521 7.20204 30.9343 7.20204L36.0272 7.24416C36.2104 7.24416 36.2863 7.48006 36.1367 7.58748L31.8947 10.6521L31.8189 10.7068L31.7747 10.7384L28.9607 12.7499L24.7103 15.7871C24.5608 15.8945 24.3628 15.7471 24.4197 15.5723V15.5744Z" fill="white"/>
</g>
<g clip-path="url(#clip2_541_11386)">
<path d="M58 -0.0012207H40V17.9988H58V-0.0012207Z" fill="#00B67A"/>
<path d="M53.4806 15.6311L51.8946 10.6541L48.9648 12.7561L53.1879 15.8438C53.3353 15.9534 53.5375 15.808 53.4806 15.6332V15.6311Z" fill="url(#paint2_linear_541_11386)"/>
<path d="M44.4197 15.5744L46.0141 10.749C46.0394 10.671 46.0141 10.5847 45.9467 10.5362L41.8585 7.52219C41.711 7.41266 41.789 7.17887 41.9722 7.17887L47.1957 7.19993H47.1999L48.8596 2.24603C48.9186 2.07121 49.165 2.07332 49.2219 2.24814L50.7553 7.06934C50.7805 7.14727 50.8521 7.20204 50.9343 7.20204L56.0272 7.24416C56.2104 7.24416 56.2863 7.48006 56.1367 7.58748L51.8947 10.6521L51.8189 10.7068L51.7747 10.7384L48.9607 12.7499L44.7103 15.7871C44.5608 15.8945 44.3628 15.7471 44.4197 15.5723V15.5744Z" fill="white"/>
</g>
<g clip-path="url(#clip3_541_11386)">
<path d="M78 -0.0012207H60V17.9988H78V-0.0012207Z" fill="#00B67A"/>
<path d="M73.4806 15.6311L71.8946 10.6541L68.9648 12.7561L73.1879 15.8438C73.3353 15.9534 73.5375 15.808 73.4806 15.6332V15.6311Z" fill="url(#paint3_linear_541_11386)"/>
<path d="M64.4197 15.5744L66.0141 10.749C66.0394 10.671 66.0141 10.5847 65.9467 10.5362L61.8585 7.52219C61.711 7.41266 61.789 7.17887 61.9722 7.17887L67.1957 7.19993H67.1999L68.8596 2.24603C68.9186 2.07121 69.165 2.07332 69.2219 2.24814L70.7553 7.06934C70.7805 7.14727 70.8521 7.20204 70.9343 7.20204L76.0272 7.24416C76.2104 7.24416 76.2863 7.48006 76.1367 7.58748L71.8947 10.6521L71.8189 10.7068L71.7747 10.7384L68.9607 12.7499L64.7103 15.7871C64.5608 15.8945 64.3628 15.7471 64.4197 15.5723V15.5744Z" fill="white"/>
</g>
<g clip-path="url(#clip4_541_11386)">
<path d="M98 -0.0012207H80V17.9988H98V-0.0012207Z" fill="#DCDCE7"/>
<path d="M95 -0.0012207H80V17.9988H95V-0.0012207Z" fill="#00B67A"/>
<path d="M98 -0.0012207H80V17.9988H98V-0.0012207Z" fill="#00B67A"/>
<path d="M93.4806 15.6311L91.8946 10.6541L88.9648 12.7561L93.1879 15.8438C93.3353 15.9534 93.5375 15.808 93.4806 15.6332V15.6311Z" fill="url(#paint4_linear_541_11386)"/>
<path d="M84.4197 15.5744L86.0141 10.749C86.0394 10.671 86.0141 10.5847 85.9467 10.5362L81.8585 7.52219C81.711 7.41266 81.789 7.17887 81.9722 7.17887L87.1957 7.19993H87.1999L88.8596 2.24603C88.9186 2.07121 89.165 2.07332 89.2219 2.24814L90.7553 7.06934C90.7805 7.14727 90.8521 7.20204 90.9343 7.20204L96.0272 7.24416C96.2104 7.24416 96.2863 7.48006 96.1367 7.58748L91.8947 10.6521L91.8189 10.7068L91.7747 10.7384L88.9607 12.7499L84.7103 15.7871C84.5608 15.8945 84.3628 15.7471 84.4197 15.5723V15.5744Z" fill="white"/>
</g>
<defs>
<linearGradient id="paint0_linear_541_11386" x1="14.3469" y1="14.6003" x2="9.98808" y2="11.3793" gradientUnits="userSpaceOnUse">
<stop stop-color="white"/>
<stop offset="0.34" stop-color="#FCFCFC"/>
<stop offset="0.52" stop-color="#F4F4F4"/>
<stop offset="0.66" stop-color="#E7E7E7"/>
<stop offset="0.78" stop-color="#D4D4D4"/>
<stop offset="0.89" stop-color="#BBBBBB"/>
<stop offset="0.99" stop-color="#9D9D9D"/>
<stop offset="1" stop-color="#999999"/>
</linearGradient>
<linearGradient id="paint1_linear_541_11386" x1="34.3469" y1="14.6003" x2="29.9881" y2="11.3793" gradientUnits="userSpaceOnUse">
<stop stop-color="white"/>
<stop offset="0.34" stop-color="#FCFCFC"/>
<stop offset="0.52" stop-color="#F4F4F4"/>
<stop offset="0.66" stop-color="#E7E7E7"/>
<stop offset="0.78" stop-color="#D4D4D4"/>
<stop offset="0.89" stop-color="#BBBBBB"/>
<stop offset="0.99" stop-color="#9D9D9D"/>
<stop offset="1" stop-color="#999999"/>
</linearGradient>
<linearGradient id="paint2_linear_541_11386" x1="54.3469" y1="14.6003" x2="49.9881" y2="11.3793" gradientUnits="userSpaceOnUse">
<stop stop-color="white"/>
<stop offset="0.34" stop-color="#FCFCFC"/>
<stop offset="0.52" stop-color="#F4F4F4"/>
<stop offset="0.66" stop-color="#E7E7E7"/>
<stop offset="0.78" stop-color="#D4D4D4"/>
<stop offset="0.89" stop-color="#BBBBBB"/>
<stop offset="0.99" stop-color="#9D9D9D"/>
<stop offset="1" stop-color="#999999"/>
</linearGradient>
<linearGradient id="paint3_linear_541_11386" x1="74.3469" y1="14.6003" x2="69.9881" y2="11.3793" gradientUnits="userSpaceOnUse">
<stop stop-color="white"/>
<stop offset="0.34" stop-color="#FCFCFC"/>
<stop offset="0.52" stop-color="#F4F4F4"/>
<stop offset="0.66" stop-color="#E7E7E7"/>
<stop offset="0.78" stop-color="#D4D4D4"/>
<stop offset="0.89" stop-color="#BBBBBB"/>
<stop offset="0.99" stop-color="#9D9D9D"/>
<stop offset="1" stop-color="#999999"/>
</linearGradient>
<linearGradient id="paint4_linear_541_11386" x1="94.3447" y1="14.6002" x2="89.9873" y2="11.3766" gradientUnits="userSpaceOnUse">
<stop stop-color="white"/>
<stop offset="0.34" stop-color="#FCFCFC"/>
<stop offset="0.52" stop-color="#F4F4F4"/>
<stop offset="0.66" stop-color="#E7E7E7"/>
<stop offset="0.78" stop-color="#D4D4D4"/>
<stop offset="0.89" stop-color="#BBBBBB"/>
<stop offset="0.99" stop-color="#9D9D9D"/>
<stop offset="1" stop-color="#999999"/>
</linearGradient>
<clipPath id="clip0_541_11386">
<rect width="18" height="18" fill="white" transform="translate(0 -0.0012207)"/>
</clipPath>
<clipPath id="clip1_541_11386">
<rect width="18" height="18" fill="white" transform="translate(20 -0.0012207)"/>
</clipPath>
<clipPath id="clip2_541_11386">
<rect width="18" height="18" fill="white" transform="translate(40 -0.0012207)"/>
</clipPath>
<clipPath id="clip3_541_11386">
<rect width="18" height="18" fill="white" transform="translate(60 -0.0012207)"/>
</clipPath>
<clipPath id="clip4_541_11386">
<rect width="18" height="18" fill="white" transform="translate(80 -0.0012207)"/>
</clipPath>
</defs>
</svg>
