<svg width="77" height="12" viewBox="0 0 77 12" fill="none" xmlns="http://www.w3.org/2000/svg">
<path d="M12.1815 4.28914L8.49255 3.7248L6.83906 0.197544C6.71556 -0.0658481 6.28406 -0.0658481 6.16056 0.197544L4.50756 3.7248L0.818574 4.28914C0.515575 4.33571 0.394575 4.70476 0.607074 4.92258L3.28707 7.67368L2.65357 11.563C2.60307 11.8719 2.93257 12.1038 3.20507 11.952L6.50006 10.1283L9.79505 11.9525C10.065 12.1028 10.3975 11.8754 10.3465 11.5635L9.71305 7.67418L12.393 4.92308C12.6055 4.70476 12.484 4.33571 12.1815 4.28914Z" fill="#F2994A"/>
<path d="M28.1815 4.28914L24.4926 3.7248L22.8391 0.197544C22.7156 -0.0658481 22.2841 -0.0658481 22.1606 0.197544L20.5076 3.7248L16.8186 4.28914C16.5156 4.33571 16.3946 4.70476 16.6071 4.92258L19.2871 7.67368L18.6536 11.563C18.6031 11.8719 18.9326 12.1038 19.2051 11.952L22.5001 10.1283L25.795 11.9525C26.065 12.1028 26.3975 11.8754 26.3465 11.5635L25.7131 7.67418L28.393 4.92308C28.6055 4.70476 28.484 4.33571 28.1815 4.28914Z" fill="#F2994A"/>
<path d="M44.1815 4.28914L40.4926 3.7248L38.8391 0.197544C38.7156 -0.0658481 38.2841 -0.0658481 38.1606 0.197544L36.5076 3.7248L32.8186 4.28914C32.5156 4.33571 32.3946 4.70476 32.6071 4.92258L35.2871 7.67368L34.6536 11.563C34.6031 11.8719 34.9326 12.1038 35.2051 11.952L38.5001 10.1283L41.795 11.9525C42.065 12.1028 42.3975 11.8754 42.3465 11.5635L41.7131 7.67418L44.393 4.92308C44.6055 4.70476 44.484 4.33571 44.1815 4.28914Z" fill="#F2994A"/>
<path d="M60.1815 4.28914L56.4926 3.7248L54.8391 0.197544C54.7156 -0.0658481 54.2841 -0.0658481 54.1606 0.197544L52.5076 3.7248L48.8186 4.28914C48.5156 4.33571 48.3946 4.70476 48.6071 4.92258L51.2871 7.67368L50.6536 11.563C50.6031 11.8719 50.9326 12.1038 51.2051 11.952L54.5001 10.1283L57.795 11.9525C58.065 12.1028 58.3975 11.8754 58.3465 11.5635L57.7131 7.67418L60.393 4.92308C60.6055 4.70476 60.484 4.33571 60.1815 4.28914Z" fill="#F2994A"/>
<path d="M76.1815 4.28914L72.4926 3.7248L70.8391 0.197544C70.7156 -0.0658481 70.2841 -0.0658481 70.1606 0.197544L68.5076 3.7248L64.8186 4.28914C64.5156 4.33571 64.3946 4.70476 64.6071 4.92258L67.2871 7.67368L66.6536 11.563C66.6031 11.8719 66.9326 12.1038 67.2051 11.952L70.5001 10.1283L73.795 11.9525C74.065 12.1028 74.3975 11.8754 74.3465 11.5635L73.7131 7.67418L76.393 4.92308C76.6055 4.70476 76.484 4.33571 76.1815 4.28914Z" fill="#F2994A"/>
</svg>
