<svg width="17" height="17" viewBox="0 0 17 17" fill="none" xmlns="http://www.w3.org/2000/svg">
<path id="Subtract" fill-rule="evenodd" clip-rule="evenodd" d="M0.5 2.27893C0.5 1.17581 1.39688 0.278931 2.5 0.278931H14.5C15.6031 0.278931 16.5 1.17581 16.5 2.27893V11.2789C16.5 12.3821 15.6031 13.2789 14.5 13.2789H10.1656L6.3 16.1789C6.14688 16.2914 5.94375 16.3102 5.775 16.2258C5.60625 16.1414 5.5 15.9696 5.5 15.7789V13.2789H2.5C1.39688 13.2789 0.5 12.3821 0.5 11.2789V2.27893ZM8.2254 3.48916L8.4999 3.75916L8.7744 3.48466C9.24243 3.04205 9.86459 2.79937 10.5087 2.80815C11.1528 2.81694 11.7681 3.0765 12.2239 3.53171C12.6797 3.98691 12.9401 4.60189 12.9497 5.24599C12.9593 5.89008 12.7174 6.51255 12.2754 6.98116L8.4999 10.7612L4.7244 6.98566C4.28239 6.51705 4.04051 5.89458 4.05012 5.25048C4.05974 4.60639 4.32009 3.99141 4.77588 3.53621C5.23167 3.081 5.84698 2.82144 6.49109 2.81265C7.1352 2.80387 7.75736 3.04655 8.2254 3.48916Z" fill="#F76969"/>
</svg>
